<mxfile host="Electron" agent="Mozilla/5.0 (Macintosh; Intel Mac OS X 10_15_7) AppleWebKit/537.36 (KHTML, like Gecko) draw.io/27.0.9 Chrome/134.0.6998.205 Electron/35.4.0 Safari/537.36" version="27.0.9" pages="2">
  <diagram name="minimalistisch" id="7pY8R_6WVWktDtA2x8rw">
    <mxGraphModel dx="1917" dy="775" grid="1" gridSize="10" guides="1" tooltips="1" connect="1" arrows="1" fold="1" page="1" pageScale="1" pageWidth="1169" pageHeight="827" math="0" shadow="0">
      <root>
        <mxCell id="0" />
        <mxCell id="1" parent="0" />
        <mxCell id="v_8o5Ma9O0IeXymbZr7A-3" value="" style="rounded=0;whiteSpace=wrap;html=1;" parent="1" vertex="1">
          <mxGeometry x="460" y="470" width="220" height="80" as="geometry" />
        </mxCell>
        <mxCell id="v_8o5Ma9O0IeXymbZr7A-2" value="&lt;b&gt;pg_lab&lt;br&gt;extension&lt;/b&gt;" style="rounded=1;whiteSpace=wrap;html=1;" parent="1" vertex="1">
          <mxGeometry x="585" y="485" width="80" height="50" as="geometry" />
        </mxCell>
        <mxCell id="v_8o5Ma9O0IeXymbZr7A-4" value="&lt;font style=&quot;font-size: 14px;&quot;&gt;Postgres server&lt;/font&gt;" style="text;html=1;align=right;verticalAlign=middle;whiteSpace=wrap;rounded=0;" parent="1" vertex="1">
          <mxGeometry x="400" y="495" width="60" height="30" as="geometry" />
        </mxCell>
        <mxCell id="v_8o5Ma9O0IeXymbZr7A-6" value="&lt;b&gt;PostBOUND&lt;br&gt;framework&lt;/b&gt;" style="rounded=1;whiteSpace=wrap;html=1;" parent="1" vertex="1">
          <mxGeometry x="480" y="280" width="180" height="60" as="geometry" />
        </mxCell>
        <mxCell id="v_8o5Ma9O0IeXymbZr7A-38" value="" style="group" parent="1" vertex="1" connectable="0">
          <mxGeometry x="480" y="360" width="75" height="80" as="geometry" />
        </mxCell>
        <mxCell id="v_8o5Ma9O0IeXymbZr7A-36" value="" style="rounded=0;whiteSpace=wrap;html=1;fillColor=#eeeeee;strokeColor=#36393d;" parent="v_8o5Ma9O0IeXymbZr7A-38" vertex="1">
          <mxGeometry width="75" height="80" as="geometry" />
        </mxCell>
        <mxCell id="v_8o5Ma9O0IeXymbZr7A-8" value="" style="ellipse;whiteSpace=wrap;html=1;aspect=fixed;" parent="v_8o5Ma9O0IeXymbZr7A-38" vertex="1">
          <mxGeometry x="6.25" y="55" width="18.75" height="18.75" as="geometry" />
        </mxCell>
        <mxCell id="v_8o5Ma9O0IeXymbZr7A-9" value="" style="ellipse;whiteSpace=wrap;html=1;aspect=fixed;" parent="v_8o5Ma9O0IeXymbZr7A-38" vertex="1">
          <mxGeometry x="31.25" y="55" width="18.75" height="18.75" as="geometry" />
        </mxCell>
        <mxCell id="v_8o5Ma9O0IeXymbZr7A-10" value="" style="ellipse;whiteSpace=wrap;html=1;aspect=fixed;" parent="v_8o5Ma9O0IeXymbZr7A-38" vertex="1">
          <mxGeometry x="18.75" y="30" width="18.75" height="18.75" as="geometry" />
        </mxCell>
        <mxCell id="v_8o5Ma9O0IeXymbZr7A-11" value="" style="ellipse;whiteSpace=wrap;html=1;aspect=fixed;" parent="v_8o5Ma9O0IeXymbZr7A-38" vertex="1">
          <mxGeometry x="50" y="30" width="18.75" height="18.75" as="geometry" />
        </mxCell>
        <mxCell id="v_8o5Ma9O0IeXymbZr7A-12" value="" style="ellipse;whiteSpace=wrap;html=1;aspect=fixed;" parent="v_8o5Ma9O0IeXymbZr7A-38" vertex="1">
          <mxGeometry x="33.125" y="5" width="18.75" height="18.75" as="geometry" />
        </mxCell>
        <mxCell id="v_8o5Ma9O0IeXymbZr7A-13" value="" style="endArrow=none;html=1;rounded=0;" parent="v_8o5Ma9O0IeXymbZr7A-38" source="v_8o5Ma9O0IeXymbZr7A-8" target="v_8o5Ma9O0IeXymbZr7A-10" edge="1">
          <mxGeometry width="50" height="50" relative="1" as="geometry">
            <mxPoint x="-106.25" y="73.75" as="sourcePoint" />
            <mxPoint x="-75" y="42.5" as="targetPoint" />
          </mxGeometry>
        </mxCell>
        <mxCell id="v_8o5Ma9O0IeXymbZr7A-15" value="" style="endArrow=none;html=1;rounded=0;" parent="v_8o5Ma9O0IeXymbZr7A-38" source="v_8o5Ma9O0IeXymbZr7A-9" target="v_8o5Ma9O0IeXymbZr7A-10" edge="1">
          <mxGeometry width="50" height="50" relative="1" as="geometry">
            <mxPoint x="26.25" y="62.5" as="sourcePoint" />
            <mxPoint x="30" y="53.75" as="targetPoint" />
          </mxGeometry>
        </mxCell>
        <mxCell id="v_8o5Ma9O0IeXymbZr7A-16" value="" style="endArrow=none;html=1;rounded=0;" parent="v_8o5Ma9O0IeXymbZr7A-38" source="v_8o5Ma9O0IeXymbZr7A-10" target="v_8o5Ma9O0IeXymbZr7A-12" edge="1">
          <mxGeometry width="50" height="50" relative="1" as="geometry">
            <mxPoint x="32.5" y="68.75" as="sourcePoint" />
            <mxPoint x="36.25" y="60" as="targetPoint" />
          </mxGeometry>
        </mxCell>
        <mxCell id="v_8o5Ma9O0IeXymbZr7A-17" value="" style="endArrow=none;html=1;rounded=0;" parent="v_8o5Ma9O0IeXymbZr7A-38" source="v_8o5Ma9O0IeXymbZr7A-11" target="v_8o5Ma9O0IeXymbZr7A-12" edge="1">
          <mxGeometry width="50" height="50" relative="1" as="geometry">
            <mxPoint x="38.75" y="75" as="sourcePoint" />
            <mxPoint x="42.5" y="66.25" as="targetPoint" />
          </mxGeometry>
        </mxCell>
        <mxCell id="v_8o5Ma9O0IeXymbZr7A-39" value="" style="group" parent="1" vertex="1" connectable="0">
          <mxGeometry x="587.5" y="360" width="75" height="80" as="geometry" />
        </mxCell>
        <mxCell id="v_8o5Ma9O0IeXymbZr7A-37" value="" style="rounded=0;whiteSpace=wrap;html=1;fillColor=#eeeeee;strokeColor=#36393d;" parent="v_8o5Ma9O0IeXymbZr7A-39" vertex="1">
          <mxGeometry width="75" height="80" as="geometry" />
        </mxCell>
        <mxCell id="v_8o5Ma9O0IeXymbZr7A-18" value="" style="ellipse;whiteSpace=wrap;html=1;aspect=fixed;fillColor=#808080;fontColor=#333333;strokeColor=#666666;" parent="v_8o5Ma9O0IeXymbZr7A-39" vertex="1">
          <mxGeometry x="18.75" y="5" width="18.75" height="18.75" as="geometry" />
        </mxCell>
        <mxCell id="v_8o5Ma9O0IeXymbZr7A-19" value="" style="ellipse;whiteSpace=wrap;html=1;aspect=fixed;fillColor=#808080;fontColor=#333333;strokeColor=#666666;" parent="v_8o5Ma9O0IeXymbZr7A-39" vertex="1">
          <mxGeometry x="37.5" y="31.25" width="18.75" height="18.75" as="geometry" />
        </mxCell>
        <mxCell id="v_8o5Ma9O0IeXymbZr7A-20" value="" style="ellipse;whiteSpace=wrap;html=1;aspect=fixed;" parent="v_8o5Ma9O0IeXymbZr7A-39" vertex="1">
          <mxGeometry x="6.25" y="30" width="18.75" height="18.75" as="geometry" />
        </mxCell>
        <mxCell id="v_8o5Ma9O0IeXymbZr7A-21" value="" style="ellipse;whiteSpace=wrap;html=1;aspect=fixed;fillStyle=auto;fillColor=#808080;fontColor=#333333;strokeColor=#666666;" parent="v_8o5Ma9O0IeXymbZr7A-39" vertex="1">
          <mxGeometry x="25" y="55" width="18.75" height="18.75" as="geometry" />
        </mxCell>
        <mxCell id="v_8o5Ma9O0IeXymbZr7A-22" value="" style="ellipse;whiteSpace=wrap;html=1;aspect=fixed;" parent="v_8o5Ma9O0IeXymbZr7A-39" vertex="1">
          <mxGeometry x="50" y="55" width="18.75" height="18.75" as="geometry" />
        </mxCell>
        <mxCell id="v_8o5Ma9O0IeXymbZr7A-23" value="" style="endArrow=none;html=1;rounded=0;" parent="v_8o5Ma9O0IeXymbZr7A-39" source="v_8o5Ma9O0IeXymbZr7A-20" target="v_8o5Ma9O0IeXymbZr7A-18" edge="1">
          <mxGeometry width="50" height="50" relative="1" as="geometry">
            <mxPoint x="-48.75" as="sourcePoint" />
            <mxPoint x="-45" y="-8.75" as="targetPoint" />
          </mxGeometry>
        </mxCell>
        <mxCell id="v_8o5Ma9O0IeXymbZr7A-24" value="" style="endArrow=none;html=1;rounded=0;" parent="v_8o5Ma9O0IeXymbZr7A-39" source="v_8o5Ma9O0IeXymbZr7A-19" target="v_8o5Ma9O0IeXymbZr7A-18" edge="1">
          <mxGeometry width="50" height="50" relative="1" as="geometry">
            <mxPoint x="68.75" y="1.25" as="sourcePoint" />
            <mxPoint x="72.5" y="-7.5" as="targetPoint" />
          </mxGeometry>
        </mxCell>
        <mxCell id="v_8o5Ma9O0IeXymbZr7A-25" value="" style="endArrow=none;html=1;rounded=0;" parent="v_8o5Ma9O0IeXymbZr7A-39" source="v_8o5Ma9O0IeXymbZr7A-19" target="v_8o5Ma9O0IeXymbZr7A-22" edge="1">
          <mxGeometry width="50" height="50" relative="1" as="geometry">
            <mxPoint x="-36.25" y="12.5" as="sourcePoint" />
            <mxPoint x="-32.5" y="3.75" as="targetPoint" />
          </mxGeometry>
        </mxCell>
        <mxCell id="v_8o5Ma9O0IeXymbZr7A-26" value="" style="endArrow=none;html=1;rounded=0;" parent="v_8o5Ma9O0IeXymbZr7A-39" source="v_8o5Ma9O0IeXymbZr7A-19" target="v_8o5Ma9O0IeXymbZr7A-21" edge="1">
          <mxGeometry width="50" height="50" relative="1" as="geometry">
            <mxPoint x="-30" y="18.75" as="sourcePoint" />
            <mxPoint x="-26.25" y="10" as="targetPoint" />
          </mxGeometry>
        </mxCell>
        <mxCell id="v_8o5Ma9O0IeXymbZr7A-42" value="" style="endArrow=none;dashed=1;html=1;rounded=0;strokeWidth=2;fillColor=#f5f5f5;strokeColor=#666666;exitX=0.5;exitY=1;exitDx=0;exitDy=0;entryX=0.59;entryY=0.008;entryDx=0;entryDy=0;entryPerimeter=0;" parent="1" source="v_8o5Ma9O0IeXymbZr7A-36" target="v_8o5Ma9O0IeXymbZr7A-48" edge="1">
          <mxGeometry width="50" height="50" relative="1" as="geometry">
            <mxPoint x="520" y="450" as="sourcePoint" />
            <mxPoint x="470" y="460" as="targetPoint" />
          </mxGeometry>
        </mxCell>
        <mxCell id="v_8o5Ma9O0IeXymbZr7A-43" value="" style="endArrow=classic;html=1;rounded=0;dashed=1;strokeWidth=2;fillColor=#f5f5f5;strokeColor=#666666;exitX=0.5;exitY=0;exitDx=0;exitDy=0;entryX=0.25;entryY=1;entryDx=0;entryDy=0;" parent="1" edge="1">
          <mxGeometry width="50" height="50" relative="1" as="geometry">
            <mxPoint x="520.5" y="360" as="sourcePoint" />
            <mxPoint x="528" y="340" as="targetPoint" />
          </mxGeometry>
        </mxCell>
        <mxCell id="v_8o5Ma9O0IeXymbZr7A-44" value="" style="endArrow=classic;html=1;rounded=0;dashed=1;strokeWidth=2;fillColor=#f5f5f5;strokeColor=#666666;exitX=0.5;exitY=1;exitDx=0;exitDy=0;endFill=1;entryX=0.5;entryY=0;entryDx=0;entryDy=0;" parent="1" source="v_8o5Ma9O0IeXymbZr7A-37" target="v_8o5Ma9O0IeXymbZr7A-2" edge="1">
          <mxGeometry width="50" height="50" relative="1" as="geometry">
            <mxPoint x="740" y="350" as="sourcePoint" />
            <mxPoint x="764" y="329" as="targetPoint" />
          </mxGeometry>
        </mxCell>
        <mxCell id="v_8o5Ma9O0IeXymbZr7A-45" value="" style="endArrow=none;dashed=1;html=1;rounded=0;entryX=0.5;entryY=0;entryDx=0;entryDy=0;strokeWidth=2;fillColor=#f5f5f5;strokeColor=#666666;exitX=0.75;exitY=1;exitDx=0;exitDy=0;" parent="1" source="v_8o5Ma9O0IeXymbZr7A-6" target="v_8o5Ma9O0IeXymbZr7A-37" edge="1">
          <mxGeometry width="50" height="50" relative="1" as="geometry">
            <mxPoint x="528" y="450" as="sourcePoint" />
            <mxPoint x="527" y="481" as="targetPoint" />
          </mxGeometry>
        </mxCell>
        <mxCell id="v_8o5Ma9O0IeXymbZr7A-46" value="Native query plan" style="text;html=1;align=right;verticalAlign=middle;whiteSpace=wrap;rounded=0;" parent="1" vertex="1">
          <mxGeometry x="420" y="385" width="60" height="30" as="geometry" />
        </mxCell>
        <mxCell id="v_8o5Ma9O0IeXymbZr7A-47" value="Updated query plan" style="text;html=1;align=left;verticalAlign=middle;whiteSpace=wrap;rounded=0;" parent="1" vertex="1">
          <mxGeometry x="665" y="384" width="60" height="30" as="geometry" />
        </mxCell>
        <mxCell id="v_8o5Ma9O0IeXymbZr7A-48" value="&lt;font style=&quot;font-size: 10px;&quot;&gt;Query optimizer&lt;/font&gt;" style="rounded=1;whiteSpace=wrap;html=1;" parent="1" vertex="1">
          <mxGeometry x="470" y="485" width="80" height="25" as="geometry" />
        </mxCell>
        <mxCell id="v_8o5Ma9O0IeXymbZr7A-49" value="&lt;font style=&quot;font-size: 10px;&quot;&gt;Executor&lt;/font&gt;" style="rounded=1;whiteSpace=wrap;html=1;" parent="1" vertex="1">
          <mxGeometry x="470" y="510" width="80" height="25" as="geometry" />
        </mxCell>
        <mxCell id="v_8o5Ma9O0IeXymbZr7A-50" value="" style="endArrow=classic;html=1;rounded=0;strokeWidth=2;fillColor=#f5f5f5;strokeColor=#666666;dashed=1;exitX=0;exitY=0.75;exitDx=0;exitDy=0;" parent="1" source="v_8o5Ma9O0IeXymbZr7A-2" target="v_8o5Ma9O0IeXymbZr7A-49" edge="1">
          <mxGeometry width="50" height="50" relative="1" as="geometry">
            <mxPoint x="470" y="460" as="sourcePoint" />
            <mxPoint x="520" y="410" as="targetPoint" />
          </mxGeometry>
        </mxCell>
      </root>
    </mxGraphModel>
  </diagram>
  <diagram id="FmL62y8jGn6vjjsDwPnk" name="detailed">
    <mxGraphModel dx="1018" dy="663" grid="1" gridSize="10" guides="1" tooltips="1" connect="1" arrows="1" fold="1" page="1" pageScale="1" pageWidth="1169" pageHeight="827" math="0" shadow="0">
      <root>
        <mxCell id="0" />
        <mxCell id="1" parent="0" />
        <mxCell id="mfRt9HS6T_KICsLgerYc-8" value="" style="rounded=0;whiteSpace=wrap;html=1;strokeWidth=3;fillColor=#f5f5f5;fontColor=#333333;strokeColor=#666666;" parent="1" vertex="1">
          <mxGeometry x="240" y="340" width="405" height="190" as="geometry" />
        </mxCell>
        <mxCell id="mfRt9HS6T_KICsLgerYc-3" value="" style="rounded=0;whiteSpace=wrap;html=1;strokeWidth=2;" parent="1" vertex="1">
          <mxGeometry x="255" y="380" width="380" height="60" as="geometry" />
        </mxCell>
        <mxCell id="UJvHvAL-quFC1oQX8A5o-12" value="" style="rounded=0;whiteSpace=wrap;html=1;strokeWidth=2;" parent="1" vertex="1">
          <mxGeometry x="255" y="458.75" width="380" height="60" as="geometry" />
        </mxCell>
        <mxCell id="s49xpKL144g8U8bypo6k-20" value="" style="rounded=0;whiteSpace=wrap;html=1;strokeWidth=3;fillColor=#f5f5f5;fontColor=#333333;strokeColor=#666666;" parent="1" vertex="1">
          <mxGeometry x="240" y="560" width="435" height="210" as="geometry" />
        </mxCell>
        <mxCell id="s49xpKL144g8U8bypo6k-17" value="" style="rounded=0;whiteSpace=wrap;html=1;" parent="1" vertex="1">
          <mxGeometry x="255" y="680" width="410" height="80" as="geometry" />
        </mxCell>
        <mxCell id="s49xpKL144g8U8bypo6k-3" value="&lt;font style=&quot;font-size: 16px;&quot;&gt;PostgreSQL server with pg_lab&lt;/font&gt;" style="text;html=1;align=left;verticalAlign=middle;whiteSpace=wrap;rounded=0;" parent="1" vertex="1">
          <mxGeometry x="243" y="563" width="230" height="30" as="geometry" />
        </mxCell>
        <mxCell id="s49xpKL144g8U8bypo6k-4" value="&lt;font style=&quot;font-size: 14px;&quot;&gt;C&lt;sub&gt;out*&lt;/sub&gt; cost model extension&lt;/font&gt;" style="rounded=0;whiteSpace=wrap;html=1;" parent="1" vertex="1">
          <mxGeometry x="280" y="600" width="150" height="50" as="geometry" />
        </mxCell>
        <mxCell id="s49xpKL144g8U8bypo6k-5" value="&lt;font style=&quot;font-size: 14px;&quot;&gt;hinting extension&lt;/font&gt;" style="rounded=0;whiteSpace=wrap;html=1;" parent="1" vertex="1">
          <mxGeometry x="480" y="600" width="150" height="50" as="geometry" />
        </mxCell>
        <mxCell id="s49xpKL144g8U8bypo6k-7" value="«EP»&lt;br&gt;add_path" style="rounded=1;whiteSpace=wrap;html=1;fillColor=#f5f5f5;fontColor=#333333;strokeColor=#666666;dashed=1;dashPattern=1 1;" parent="1" vertex="1">
          <mxGeometry x="425" y="670" width="70" height="40" as="geometry" />
        </mxCell>
        <mxCell id="s49xpKL144g8U8bypo6k-8" value="«EP»&lt;br&gt;cost_XXX" style="rounded=1;whiteSpace=wrap;html=1;fillColor=#f5f5f5;fontColor=#333333;strokeColor=#666666;dashed=1;dashPattern=1 1;" parent="1" vertex="1">
          <mxGeometry x="505" y="670" width="70" height="40" as="geometry" />
        </mxCell>
        <mxCell id="s49xpKL144g8U8bypo6k-9" value="«EP»&lt;br&gt;join_search" style="rounded=1;whiteSpace=wrap;html=1;dashed=1;dashPattern=1 1;" parent="1" vertex="1">
          <mxGeometry x="345" y="670" width="70" height="40" as="geometry" />
        </mxCell>
        <mxCell id="s49xpKL144g8U8bypo6k-10" value="«EP»&lt;br&gt;planner" style="rounded=1;whiteSpace=wrap;html=1;dashed=1;dashPattern=1 1;" parent="1" vertex="1">
          <mxGeometry x="265" y="670" width="70" height="40" as="geometry" />
        </mxCell>
        <mxCell id="s49xpKL144g8U8bypo6k-11" value="«EP»&lt;br&gt;set_rel_size" style="rounded=1;whiteSpace=wrap;html=1;fillColor=#f5f5f5;fontColor=#333333;strokeColor=#666666;dashed=1;dashPattern=1 1;" parent="1" vertex="1">
          <mxGeometry x="585" y="670" width="70" height="40" as="geometry" />
        </mxCell>
        <mxCell id="s49xpKL144g8U8bypo6k-12" value="" style="endArrow=classic;html=1;rounded=0;entryX=0.555;entryY=0.019;entryDx=0;entryDy=0;entryPerimeter=0;" parent="1" source="s49xpKL144g8U8bypo6k-5" target="s49xpKL144g8U8bypo6k-7" edge="1">
          <mxGeometry width="50" height="50" relative="1" as="geometry">
            <mxPoint x="455" y="660" as="sourcePoint" />
            <mxPoint x="505" y="610" as="targetPoint" />
          </mxGeometry>
        </mxCell>
        <mxCell id="s49xpKL144g8U8bypo6k-13" value="" style="endArrow=classic;html=1;rounded=0;entryX=0.5;entryY=0;entryDx=0;entryDy=0;" parent="1" source="s49xpKL144g8U8bypo6k-5" target="s49xpKL144g8U8bypo6k-8" edge="1">
          <mxGeometry width="50" height="50" relative="1" as="geometry">
            <mxPoint x="455" y="660" as="sourcePoint" />
            <mxPoint x="505" y="610" as="targetPoint" />
          </mxGeometry>
        </mxCell>
        <mxCell id="s49xpKL144g8U8bypo6k-14" value="" style="endArrow=classic;html=1;rounded=0;entryX=0.5;entryY=0;entryDx=0;entryDy=0;" parent="1" source="s49xpKL144g8U8bypo6k-5" target="s49xpKL144g8U8bypo6k-11" edge="1">
          <mxGeometry width="50" height="50" relative="1" as="geometry">
            <mxPoint x="455" y="660" as="sourcePoint" />
            <mxPoint x="505" y="610" as="targetPoint" />
          </mxGeometry>
        </mxCell>
        <mxCell id="s49xpKL144g8U8bypo6k-15" value="" style="endArrow=classic;html=1;rounded=0;entryX=0.059;entryY=0.026;entryDx=0;entryDy=0;entryPerimeter=0;" parent="1" source="s49xpKL144g8U8bypo6k-4" target="s49xpKL144g8U8bypo6k-8" edge="1">
          <mxGeometry width="50" height="50" relative="1" as="geometry">
            <mxPoint x="455" y="660" as="sourcePoint" />
            <mxPoint x="505" y="610" as="targetPoint" />
          </mxGeometry>
        </mxCell>
        <mxCell id="s49xpKL144g8U8bypo6k-18" value="" style="html=1;verticalLabelPosition=bottom;align=center;labelBackgroundColor=#ffffff;verticalAlign=top;strokeWidth=2;shadow=0;dashed=0;shape=mxgraph.ios7.icons.settings;" parent="1" vertex="1">
          <mxGeometry x="265" y="720" width="30" height="30" as="geometry" />
        </mxCell>
        <mxCell id="s49xpKL144g8U8bypo6k-19" value="&lt;font style=&quot;font-size: 14px;&quot;&gt;PostgreSQL query optimizer&lt;/font&gt;" style="text;html=1;align=center;verticalAlign=middle;whiteSpace=wrap;rounded=0;fontStyle=1" parent="1" vertex="1">
          <mxGeometry x="295" y="720" width="210" height="30" as="geometry" />
        </mxCell>
        <mxCell id="s49xpKL144g8U8bypo6k-21" value="&lt;font style=&quot;font-size: 14px;&quot;&gt;SQL interface&lt;/font&gt;" style="rounded=0;whiteSpace=wrap;html=1;" parent="1" vertex="1">
          <mxGeometry x="535" y="540" width="120" height="40" as="geometry" />
        </mxCell>
        <mxCell id="s49xpKL144g8U8bypo6k-22" value="&lt;font style=&quot;font-size: 10px;&quot;&gt;vanilla extension point&lt;/font&gt;" style="rounded=1;whiteSpace=wrap;html=1;dashed=1;dashPattern=1 1;" parent="1" vertex="1">
          <mxGeometry x="685" y="670" width="70" height="40" as="geometry" />
        </mxCell>
        <mxCell id="s49xpKL144g8U8bypo6k-23" value="&lt;font style=&quot;font-size: 10px;&quot;&gt;pg_lab extension point&lt;/font&gt;" style="rounded=1;whiteSpace=wrap;html=1;dashed=1;dashPattern=1 1;fillColor=#f5f5f5;fontColor=#333333;strokeColor=#666666;" parent="1" vertex="1">
          <mxGeometry x="685" y="720" width="70" height="40" as="geometry" />
        </mxCell>
        <mxCell id="qERK7Q--sYKA2YSeDqUz-4" value="" style="shape=flexArrow;endArrow=classic;html=1;rounded=0;fillColor=#f5f5f5;strokeColor=#666666;" parent="1" edge="1">
          <mxGeometry width="50" height="50" relative="1" as="geometry">
            <mxPoint x="594.86" y="570" as="sourcePoint" />
            <mxPoint x="594.86" y="610" as="targetPoint" />
          </mxGeometry>
        </mxCell>
        <mxCell id="eLWYxsq3fGDdarFAshbw-1" value="/*=pg_lab=&lt;br&gt;&amp;nbsp; &lt;font color=&quot;#7ea6e0&quot;&gt;JoinOrder&lt;/font&gt;(((R S) T))&lt;div&gt;&amp;nbsp; &lt;font color=&quot;#7ea6e0&quot;&gt;HashJoin&lt;/font&gt;(R S)&lt;/div&gt;&lt;div&gt;&amp;nbsp; &lt;font color=&quot;#7ea6e0&quot;&gt;IdxScan&lt;/font&gt;(T)&lt;/div&gt;&lt;div&gt;&amp;nbsp; &lt;font color=&quot;#7ea6e0&quot;&gt;Card&lt;/font&gt;(R S T #100)&lt;br&gt;*/&lt;br&gt;&lt;font color=&quot;#b5739d&quot;&gt;SELECT&lt;/font&gt; *&lt;br&gt;&lt;font color=&quot;#b5739d&quot;&gt;FROM&lt;/font&gt; &lt;font color=&quot;#333333&quot;&gt;R, S, T&lt;/font&gt;&lt;br&gt;&lt;font color=&quot;#b5739d&quot;&gt;WHERE&lt;/font&gt; R.a = S.b&lt;br&gt;&amp;nbsp; &lt;font color=&quot;#b5739d&quot;&gt;AND&lt;/font&gt; S.b = T.c&lt;/div&gt;&lt;div&gt;&amp;nbsp; &lt;font color=&quot;#b5739d&quot;&gt;AND&lt;/font&gt; R.x &amp;lt; 42&lt;/div&gt;" style="text;html=1;align=left;verticalAlign=middle;whiteSpace=wrap;rounded=0;" parent="1" vertex="1">
          <mxGeometry x="685" y="468.75" width="135" height="161.25" as="geometry" />
        </mxCell>
        <mxCell id="eLWYxsq3fGDdarFAshbw-2" value="hinted query" style="text;html=1;align=center;verticalAlign=middle;whiteSpace=wrap;rounded=0;" parent="1" vertex="1">
          <mxGeometry x="740" y="450" width="75" height="26" as="geometry" />
        </mxCell>
        <mxCell id="eLWYxsq3fGDdarFAshbw-3" value="unified statistics catalog" style="rounded=1;whiteSpace=wrap;html=1;dashed=1;dashPattern=1 1;" parent="1" vertex="1">
          <mxGeometry x="330" y="468.75" width="90" height="40" as="geometry" />
        </mxCell>
        <mxCell id="eLWYxsq3fGDdarFAshbw-4" value="unified plan abstraction" style="rounded=1;whiteSpace=wrap;html=1;dashed=1;dashPattern=1 1;" parent="1" vertex="1">
          <mxGeometry x="430" y="468.75" width="90" height="40" as="geometry" />
        </mxCell>
        <mxCell id="eLWYxsq3fGDdarFAshbw-5" value="hinting backend" style="rounded=1;whiteSpace=wrap;html=1;dashed=1;dashPattern=1 1;" parent="1" vertex="1">
          <mxGeometry x="530" y="468.75" width="90" height="40" as="geometry" />
        </mxCell>
        <mxCell id="UJvHvAL-quFC1oQX8A5o-10" value="" style="group" parent="1" vertex="1" connectable="0">
          <mxGeometry x="660" y="360" width="62.5" height="68.75" as="geometry" />
        </mxCell>
        <mxCell id="UJvHvAL-quFC1oQX8A5o-1" value="" style="ellipse;whiteSpace=wrap;html=1;aspect=fixed;fillColor=#f5f5f5;fontColor=#333333;strokeColor=#666666;" parent="UJvHvAL-quFC1oQX8A5o-10" vertex="1">
          <mxGeometry x="12.5" width="18.75" height="18.75" as="geometry" />
        </mxCell>
        <mxCell id="UJvHvAL-quFC1oQX8A5o-2" value="" style="ellipse;whiteSpace=wrap;html=1;aspect=fixed;fillColor=#f5f5f5;fontColor=#333333;strokeColor=#666666;" parent="UJvHvAL-quFC1oQX8A5o-10" vertex="1">
          <mxGeometry x="31.25" y="26.25" width="18.75" height="18.75" as="geometry" />
        </mxCell>
        <mxCell id="UJvHvAL-quFC1oQX8A5o-3" value="" style="ellipse;whiteSpace=wrap;html=1;aspect=fixed;fillColor=#f5f5f5;fontColor=#333333;strokeColor=#666666;" parent="UJvHvAL-quFC1oQX8A5o-10" vertex="1">
          <mxGeometry y="25" width="18.75" height="18.75" as="geometry" />
        </mxCell>
        <mxCell id="UJvHvAL-quFC1oQX8A5o-4" value="" style="ellipse;whiteSpace=wrap;html=1;aspect=fixed;fillStyle=auto;fillColor=#f5f5f5;fontColor=#333333;strokeColor=#666666;" parent="UJvHvAL-quFC1oQX8A5o-10" vertex="1">
          <mxGeometry x="18.75" y="50" width="18.75" height="18.75" as="geometry" />
        </mxCell>
        <mxCell id="UJvHvAL-quFC1oQX8A5o-5" value="" style="ellipse;whiteSpace=wrap;html=1;aspect=fixed;fillColor=#f5f5f5;fontColor=#333333;strokeColor=#666666;" parent="UJvHvAL-quFC1oQX8A5o-10" vertex="1">
          <mxGeometry x="43.75" y="50" width="18.75" height="18.75" as="geometry" />
        </mxCell>
        <mxCell id="UJvHvAL-quFC1oQX8A5o-6" value="" style="endArrow=none;html=1;rounded=0;" parent="UJvHvAL-quFC1oQX8A5o-10" source="UJvHvAL-quFC1oQX8A5o-3" target="UJvHvAL-quFC1oQX8A5o-1" edge="1">
          <mxGeometry width="50" height="50" relative="1" as="geometry">
            <mxPoint x="-55" y="-5" as="sourcePoint" />
            <mxPoint x="-51.25" y="-13.75" as="targetPoint" />
          </mxGeometry>
        </mxCell>
        <mxCell id="UJvHvAL-quFC1oQX8A5o-7" value="" style="endArrow=none;html=1;rounded=0;" parent="UJvHvAL-quFC1oQX8A5o-10" source="UJvHvAL-quFC1oQX8A5o-2" target="UJvHvAL-quFC1oQX8A5o-1" edge="1">
          <mxGeometry width="50" height="50" relative="1" as="geometry">
            <mxPoint x="62.5" y="-3.75" as="sourcePoint" />
            <mxPoint x="66.25" y="-12.5" as="targetPoint" />
          </mxGeometry>
        </mxCell>
        <mxCell id="UJvHvAL-quFC1oQX8A5o-8" value="" style="endArrow=none;html=1;rounded=0;" parent="UJvHvAL-quFC1oQX8A5o-10" source="UJvHvAL-quFC1oQX8A5o-2" target="UJvHvAL-quFC1oQX8A5o-5" edge="1">
          <mxGeometry width="50" height="50" relative="1" as="geometry">
            <mxPoint x="-42.5" y="7.5" as="sourcePoint" />
            <mxPoint x="-38.75" y="-1.25" as="targetPoint" />
          </mxGeometry>
        </mxCell>
        <mxCell id="UJvHvAL-quFC1oQX8A5o-9" value="" style="endArrow=none;html=1;rounded=0;" parent="UJvHvAL-quFC1oQX8A5o-10" source="UJvHvAL-quFC1oQX8A5o-2" target="UJvHvAL-quFC1oQX8A5o-4" edge="1">
          <mxGeometry width="50" height="50" relative="1" as="geometry">
            <mxPoint x="-36.25" y="13.75" as="sourcePoint" />
            <mxPoint x="-32.5" y="5" as="targetPoint" />
          </mxGeometry>
        </mxCell>
        <mxCell id="UJvHvAL-quFC1oQX8A5o-13" value="Target database interface" style="text;html=1;align=left;verticalAlign=middle;whiteSpace=wrap;rounded=0;" parent="1" vertex="1">
          <mxGeometry x="257" y="468.75" width="60" height="40" as="geometry" />
        </mxCell>
        <mxCell id="mfRt9HS6T_KICsLgerYc-4" value="Experiment-specific optimization pipeline" style="text;html=1;align=left;verticalAlign=middle;whiteSpace=wrap;rounded=0;" parent="1" vertex="1">
          <mxGeometry x="257" y="388.75" width="120" height="40" as="geometry" />
        </mxCell>
        <mxCell id="mfRt9HS6T_KICsLgerYc-6" value="" style="curved=1;endArrow=classic;html=1;rounded=0;exitX=1;exitY=0.5;exitDx=0;exitDy=0;entryX=1;entryY=0.25;entryDx=0;entryDy=0;" parent="1" source="mfRt9HS6T_KICsLgerYc-3" target="eLWYxsq3fGDdarFAshbw-5" edge="1">
          <mxGeometry width="50" height="50" relative="1" as="geometry">
            <mxPoint x="435" y="378.75" as="sourcePoint" />
            <mxPoint x="485" y="328.75" as="targetPoint" />
            <Array as="points">
              <mxPoint x="670" y="410" />
              <mxPoint x="670" y="470" />
            </Array>
          </mxGeometry>
        </mxCell>
        <mxCell id="mfRt9HS6T_KICsLgerYc-7" value="abstract plan representation" style="text;html=1;align=center;verticalAlign=middle;whiteSpace=wrap;rounded=0;" parent="1" vertex="1">
          <mxGeometry x="695" y="354" width="75" height="26" as="geometry" />
        </mxCell>
        <mxCell id="mfRt9HS6T_KICsLgerYc-9" value="&lt;font style=&quot;font-size: 16px;&quot;&gt;PostBOUND control script&lt;/font&gt;" style="text;html=1;align=left;verticalAlign=middle;whiteSpace=wrap;rounded=0;" parent="1" vertex="1">
          <mxGeometry x="243" y="342" width="275" height="30" as="geometry" />
        </mxCell>
        <mxCell id="mfRt9HS6T_KICsLgerYc-10" value="" style="curved=1;endArrow=classic;html=1;rounded=0;exitX=1;exitY=0.75;exitDx=0;exitDy=0;entryX=1;entryY=0.25;entryDx=0;entryDy=0;" parent="1" source="eLWYxsq3fGDdarFAshbw-5" target="s49xpKL144g8U8bypo6k-21" edge="1">
          <mxGeometry width="50" height="50" relative="1" as="geometry">
            <mxPoint x="540" y="430" as="sourcePoint" />
            <mxPoint x="590" y="380" as="targetPoint" />
            <Array as="points">
              <mxPoint x="670" y="500" />
              <mxPoint x="680" y="540" />
            </Array>
          </mxGeometry>
        </mxCell>
        <mxCell id="mfRt9HS6T_KICsLgerYc-11" value="" style="endArrow=none;html=1;rounded=0;endFill=0;dashed=1;" parent="1" source="s49xpKL144g8U8bypo6k-21" target="eLWYxsq3fGDdarFAshbw-4" edge="1">
          <mxGeometry width="50" height="50" relative="1" as="geometry">
            <mxPoint x="420" y="510" as="sourcePoint" />
            <mxPoint x="470" y="460" as="targetPoint" />
          </mxGeometry>
        </mxCell>
        <mxCell id="mfRt9HS6T_KICsLgerYc-12" value="" style="endArrow=none;html=1;rounded=0;endFill=0;dashed=1;entryX=0.916;entryY=1.002;entryDx=0;entryDy=0;entryPerimeter=0;" parent="1" source="s49xpKL144g8U8bypo6k-21" target="eLWYxsq3fGDdarFAshbw-3" edge="1">
          <mxGeometry width="50" height="50" relative="1" as="geometry">
            <mxPoint x="420" y="510" as="sourcePoint" />
            <mxPoint x="470" y="460" as="targetPoint" />
          </mxGeometry>
        </mxCell>
        <mxCell id="mfRt9HS6T_KICsLgerYc-13" value="" style="shape=flexArrow;endArrow=classic;html=1;rounded=0;fillColor=#f5f5f5;strokeColor=#666666;" parent="1" edge="1">
          <mxGeometry width="50" height="50" relative="1" as="geometry">
            <mxPoint x="560" y="330" as="sourcePoint" />
            <mxPoint x="560" y="370" as="targetPoint" />
          </mxGeometry>
        </mxCell>
        <mxCell id="mfRt9HS6T_KICsLgerYc-14" value="SQL" style="text;html=1;align=center;verticalAlign=middle;whiteSpace=wrap;rounded=0;" parent="1" vertex="1">
          <mxGeometry x="530" y="300" width="60" height="30" as="geometry" />
        </mxCell>
        <mxCell id="zSVzqTpPUdx6fVm8Kjb6-1" value="" style="endArrow=none;html=1;rounded=0;endFill=0;dashed=1;" parent="1" source="mfRt9HS6T_KICsLgerYc-3" target="eLWYxsq3fGDdarFAshbw-3" edge="1">
          <mxGeometry width="50" height="50" relative="1" as="geometry">
            <mxPoint x="545" y="551" as="sourcePoint" />
            <mxPoint x="430" y="513" as="targetPoint" />
          </mxGeometry>
        </mxCell>
        <mxCell id="zSVzqTpPUdx6fVm8Kjb6-2" value="" style="endArrow=none;html=1;rounded=0;endFill=0;dashed=1;" parent="1" source="mfRt9HS6T_KICsLgerYc-3" target="eLWYxsq3fGDdarFAshbw-4" edge="1">
          <mxGeometry width="50" height="50" relative="1" as="geometry">
            <mxPoint x="555" y="561" as="sourcePoint" />
            <mxPoint x="440" y="523" as="targetPoint" />
          </mxGeometry>
        </mxCell>
        <mxCell id="lf9nwl0Et1oQCF8QrN2U-1" value="&lt;span style=&quot;font-size: 14px;&quot;&gt;custom extension (e.g. cost model)&lt;/span&gt;" style="rounded=0;whiteSpace=wrap;html=1;" parent="1" vertex="1">
          <mxGeometry x="280" y="600" width="150" height="50" as="geometry" />
        </mxCell>
        <mxCell id="1vj_uHqVo3ps5QRiVWPG-7" value="" style="group" parent="1" vertex="1" connectable="0">
          <mxGeometry x="420" y="390.63" width="190" height="40.620000000000005" as="geometry" />
        </mxCell>
        <mxCell id="1vj_uHqVo3ps5QRiVWPG-1" value="Cardinality estimation" style="rounded=1;whiteSpace=wrap;html=1;dashed=1;dashPattern=1 1;" parent="1vj_uHqVo3ps5QRiVWPG-7" vertex="1">
          <mxGeometry y="0.6200000000000045" width="60" height="40" as="geometry" />
        </mxCell>
        <mxCell id="1vj_uHqVo3ps5QRiVWPG-2" value="Operator selection" style="rounded=1;whiteSpace=wrap;html=1;dashed=1;dashPattern=1 1;" parent="1vj_uHqVo3ps5QRiVWPG-7" vertex="1">
          <mxGeometry x="130" width="60" height="40" as="geometry" />
        </mxCell>
        <mxCell id="UJvHvAL-quFC1oQX8A5o-14" value="Join ordering" style="rounded=1;whiteSpace=wrap;html=1;dashed=1;dashPattern=1 1;" parent="1vj_uHqVo3ps5QRiVWPG-7" vertex="1">
          <mxGeometry x="65" y="0.6200000000000045" width="60" height="40" as="geometry" />
        </mxCell>
        <mxCell id="1vj_uHqVo3ps5QRiVWPG-3" value="" style="shape=flexArrow;endArrow=classic;html=1;rounded=0;endWidth=10.764828303850157;endSize=2.859677419354839;width=7.258064516129032;fillColor=#f5f5f5;strokeColor=#666666;" parent="1vj_uHqVo3ps5QRiVWPG-7" edge="1">
          <mxGeometry width="50" height="50" relative="1" as="geometry">
            <mxPoint x="53" y="20.54000000000002" as="sourcePoint" />
            <mxPoint x="73" y="20.54000000000002" as="targetPoint" />
          </mxGeometry>
        </mxCell>
        <mxCell id="1vj_uHqVo3ps5QRiVWPG-5" value="" style="shape=flexArrow;endArrow=classic;html=1;rounded=0;endWidth=10.764828303850157;endSize=2.859677419354839;width=7.258064516129032;fillColor=#f5f5f5;strokeColor=#666666;" parent="1vj_uHqVo3ps5QRiVWPG-7" edge="1">
          <mxGeometry width="50" height="50" relative="1" as="geometry">
            <mxPoint x="117" y="20.54000000000002" as="sourcePoint" />
            <mxPoint x="137" y="20.54000000000002" as="targetPoint" />
          </mxGeometry>
        </mxCell>
      </root>
    </mxGraphModel>
  </diagram>
</mxfile>
